<svg id="Grupo_1" data-name="Grupo 1" xmlns="http://www.w3.org/2000/svg" width="252" height="70.148" viewBox="0 0 252 70.148">
  <path id="Caminho_2" data-name="Caminho 2" d="M1105.082,144.116a.566.566,0,0,0,1.025.294,12.022,12.022,0,0,1,4.4-3.446,18.03,18.03,0,0,1,7.965-1.788q8.238,0,12.784,5.4t4.547,15.972q0,10.57-4.547,15.971t-12.784,5.4a18.719,18.719,0,0,1-7.85-1.593,10.685,10.685,0,0,1-4.132-3.2.562.562,0,0,0-1,.357v10.609a7.228,7.228,0,0,1-7.229,7.229h-1.242q-1.864,0-1.865-1.788V141.9q0-1.787,1.865-1.788h6.063a1.618,1.618,0,0,1,1.864,1.554Zm10.433,29.49q4.975,0,7.384-3.071t2.41-9.986q0-6.918-2.41-9.988t-7.384-3.07q-10.1,0-10.1,13.058T1115.515,173.606Z" transform="translate(-1095.153 -125.176)" fill="#241f20"/>
  <path id="Caminho_3" data-name="Caminho 3" d="M1167.546,174.9a1.581,1.581,0,0,1-1.788,1.788H1159q-1.709,0-1.71-1.788V123.684a1.512,1.512,0,0,1,1.71-1.71h6.762q1.788,0,1.788,1.71Z" transform="translate(-1110.141 -121.974)" fill="#241f20"/>
  <path id="Caminho_4" data-name="Caminho 4" d="M1214.767,180.386a1.637,1.637,0,0,1-1.866,1.837h-5.749a1.566,1.566,0,0,1-1.789-1.518l-.311-4.313q-4.119,6.55-14.145,6.549-6.14,0-9.716-3.2t-3.575-9.024a12.627,12.627,0,0,1,1.322-5.95,10.648,10.648,0,0,1,3.537-3.994,18.9,18.9,0,0,1,5.828-2.4,48.684,48.684,0,0,1,7.384-1.278q3.768-.36,9.054-.44v-1.836q0-3.754-2.1-5.511t-6.763-1.757a31.272,31.272,0,0,0-11.658,2.4,1.6,1.6,0,0,1-2.254-1.118l-1.4-4.393a1.731,1.731,0,0,1,1.088-2.236,38.3,38.3,0,0,1,15.543-3.035q17.565,0,17.565,15.175ZM1204.741,162.9q-4.354.16-7.151.439a28.193,28.193,0,0,0-5.324,1.039,7.474,7.474,0,0,0-3.692,2.157,5.365,5.365,0,0,0-1.166,3.553,5.07,5.07,0,0,0,1.788,4.073,7.584,7.584,0,0,0,5.052,1.518q5.13,0,7.81-2.6a8.972,8.972,0,0,0,2.683-6.748Z" transform="translate(-1114.906 -126.351)" fill="#241f20"/>
  <path id="Caminho_5" data-name="Caminho 5" d="M1239.782,144.806q5.557-5.631,14.962-5.631,7.692,0,11.968,2.715a1.838,1.838,0,0,1,1.01,2.476l-1.864,4.312a1.711,1.711,0,0,1-2.566.879,17.466,17.466,0,0,0-7.305-1.517q-5.363,0-8.316,3.234t-2.954,9.782q0,6.629,2.954,9.942a10.367,10.367,0,0,0,8.161,3.315,16.667,16.667,0,0,0,8-1.917q1.789-.8,2.41.879l1.866,4.392q.542,1.358-1.089,2.476-4.663,2.955-11.891,2.955-9.636,0-15.273-5.71t-5.634-16.331Q1234.225,150.436,1239.782,144.806Z" transform="translate(-1128.496 -126.351)" fill="#241f20"/>
  <path id="Caminho_6" data-name="Caminho 6" d="M1407.678,145.576v18.887q0,3.341,1.088,4.586t4.275,1.244q.545,0,3.264-.389a1.267,1.267,0,0,1,1.127.311,2.131,2.131,0,0,1,.427,1.244l.465,4.352q.079,1.322-1.476,1.788a21.008,21.008,0,0,1-6.529.854q-6.838,0-9.793-2.953t-2.953-9.948V145.576H1393.3q-1.865,0-1.865-1.787v-4.352q0-1.788,1.865-1.788h4.43v-9.56q0-1.632,1.787-1.632h6.218q1.865,0,1.866,1.632v9.56h8.626a1.58,1.58,0,0,1,1.788,1.788v4.352a1.58,1.58,0,0,1-1.788,1.787Z" transform="translate(-1166.329 -123.115)" fill="#241f20"/>
  <path id="Caminho_7" data-name="Caminho 7" d="M1315.416,144.646q-4.9-5.47-13.834-5.471-9.17,0-14.494,5.789t-5.324,16.251q0,10.381,5.79,16.17t16.128,5.789a29.147,29.147,0,0,0,13.523-3.114,1.888,1.888,0,0,0,1.166-2.316l-1.322-3.753q-.7-1.917-2.331-1.118a21.971,21.971,0,0,1-10.18,2.476,13.09,13.09,0,0,1-8.667-2.754,10.8,10.8,0,0,1-3.515-5.518,23.682,23.682,0,0,1-.863-6.459,29.694,29.694,0,0,1,.5-4.657q1.527-8.96,9.748-8.96a8.4,8.4,0,0,1,6.879,2.875q2.372,2.875,2.37,7.986v.479h-4.522a4.617,4.617,0,0,0-4.555,4.63v.066a1.964,1.964,0,0,0,1.937,2.012h14.6a1.891,1.891,0,0,0,1.865-1.916v-3.913Q1320.313,150.116,1315.416,144.646Z" transform="translate(-1139.834 -126.351)" fill="#241f20"/>
  <path id="Caminho_8" data-name="Caminho 8" d="M1371.677,144.646q-4.9-5.47-13.834-5.471-9.17,0-14.494,5.789t-5.324,16.251q0,10.381,5.79,16.17t16.128,5.789a29.145,29.145,0,0,0,13.523-3.114,1.889,1.889,0,0,0,1.167-2.316l-1.323-3.753q-.7-1.917-2.331-1.118a21.972,21.972,0,0,1-10.181,2.476,13.089,13.089,0,0,1-8.667-2.754,10.8,10.8,0,0,1-3.515-5.518,23.7,23.7,0,0,1-.862-6.459,29.813,29.813,0,0,1,.5-4.657Q1349.778,147,1358,147a8.4,8.4,0,0,1,6.878,2.875q2.371,2.875,2.37,7.986v.479h-4.523a4.617,4.617,0,0,0-4.555,4.63v.066a1.965,1.965,0,0,0,1.937,2.012h14.6a1.891,1.891,0,0,0,1.865-1.916v-3.913Q1376.575,150.116,1371.677,144.646Z" transform="translate(-1152.737 -126.351)" fill="#241f20"/>
</svg>
