<svg width="38" height="37" viewBox="0 0 38 37" fill="none" xmlns="http://www.w3.org/2000/svg">
<g clip-path="url(#clip0)">
<path d="M30.74 4.13H35.43C35.8464 4.13 36.2457 4.29541 36.5402 4.58985C36.8346 4.88428 37 5.28361 37 5.7V33.87C37 34.2864 36.8346 34.6857 36.5402 34.9802C36.2457 35.2746 35.8464 35.44 35.43 35.44H2.57C2.15361 35.44 1.75427 35.2746 1.45984 34.9802C1.16541 34.6857 1 34.2864 1 33.87V5.7C1 5.28361 1.16541 4.88428 1.45984 4.58985C1.75427 4.29541 2.15361 4.13 2.57 4.13H30.74Z" fill="#15FE8A" stroke="black" stroke-width="2" stroke-linecap="round" stroke-linejoin="round"/>
<path d="M10.39 1V7.26" stroke="black" stroke-width="2" stroke-linecap="round" stroke-linejoin="round"/>
<path d="M27.61 1V7.26" stroke="black" stroke-width="2" stroke-linecap="round" stroke-linejoin="round"/>
<path d="M1 11.96H37" stroke="black" stroke-width="2" stroke-linecap="round" stroke-linejoin="round"/>
<path d="M10.39 1V7.26" stroke="#15FE8A" stroke-width="2" stroke-linecap="round" stroke-linejoin="round"/>
<path d="M27.61 1V7.26" stroke="#15FE8A" stroke-width="2" stroke-linecap="round" stroke-linejoin="round"/>
</g>
<defs>
<clipPath id="clip0">
<rect width="38" height="36.43" fill="white"/>
</clipPath>
</defs>
</svg>
