<svg xmlns="http://www.w3.org/2000/svg" width="22" height="22" viewBox="0 0 22 22">
  <g id="Grupo_9323" data-name="Grupo 9323" transform="translate(186 64.276) rotate(180)">
    <path id="Caminho_19289" data-name="Caminho 19289" d="M170.138,56.766a.859.859,0,0,1,0-1.215l5.765-5.765a.859.859,0,0,1,1.215,0l2.745,2.745a.859.859,0,1,1-1.215,1.215l-2.137-2.137-5.158,5.158a.86.86,0,0,1-1.216,0ZM164,53.275a11,11,0,1,1,11,11,10.994,10.994,0,0,1-11-11Zm1.719,0A9.281,9.281,0,1,0,175,43.994a9.276,9.276,0,0,0-9.281,9.281Zm0,0" transform="translate(0 0.001)" fill="#10fd90"/>
  </g>
</svg>
