<svg width="265" height="187" viewBox="0 0 265 187" fill="none" xmlns="http://www.w3.org/2000/svg">
<rect width="50" height="50" transform="translate(22 43)" fill="#B6FFCA"/>
<path d="M0 15C0 6.71573 6.71573 0 15 0H250C258.284 0 265 6.71573 265 15V172C265 180.284 258.284 187 250 187H15C6.71573 187 0 180.284 0 172V15Z" fill="#00FFAB"/>
<path d="M0 15C0 6.71573 6.71573 0 15 0H250C258.284 0 265 6.71573 265 15V172C265 180.284 258.284 187 250 187H15C6.71573 187 0 180.284 0 172V15Z" fill="#00FFAB"/>
<path d="M1 15C1 7.26801 7.26801 1 15 1H250C257.732 1 264 7.26801 264 15V172C264 179.732 257.732 186 250 186H15C7.26802 186 1 179.732 1 172V15Z" stroke="black" stroke-opacity="0.54" stroke-width="2"/>
<path fill-rule="evenodd" clip-rule="evenodd" d="M46.9792 47.1667C35.4792 47.1667 26.1667 56.5 26.1667 68C26.1667 79.5 35.4792 88.8333 46.9792 88.8333C58.5 88.8333 67.8333 79.5 67.8333 68C67.8333 56.5 58.5 47.1667 46.9792 47.1667ZM47 84.6667C37.7917 84.6667 30.3333 77.2083 30.3333 68C30.3333 58.7917 37.7917 51.3333 47 51.3333C56.2083 51.3333 63.6667 58.7917 63.6667 68C63.6667 77.2083 56.2083 84.6667 47 84.6667ZM57.4167 62.7917C57.4167 64.5208 56.0208 65.9167 54.2917 65.9167C52.5625 65.9167 51.1667 64.5208 51.1667 62.7917C51.1667 61.0625 52.5625 59.6667 54.2917 59.6667C56.0208 59.6667 57.4167 61.0625 57.4167 62.7917ZM39.7083 65.9167C41.4375 65.9167 42.8333 64.5208 42.8333 62.7917C42.8333 61.0625 41.4375 59.6667 39.7083 59.6667C37.9792 59.6667 36.5833 61.0625 36.5833 62.7917C36.5833 64.5208 37.9792 65.9167 39.7083 65.9167ZM57.6458 72.1667C55.9792 76.4167 51.8542 79.4583 47 79.4583C42.1458 79.4583 38.0208 76.4167 36.3542 72.1667H57.6458Z" fill="black" fill-opacity="0.76"/>
<rect x="14" y="102" width="67" height="1" rx="0.5" fill="black" fill-opacity="0.54"/>
<rect x="14" y="117" width="67" height="1" rx="0.5" fill="black" fill-opacity="0.54"/>
<rect x="14" y="132" width="67" height="1" rx="0.5" fill="black" fill-opacity="0.54"/>
<rect x="122" y="72" width="111" height="1" rx="0.5" fill="black" fill-opacity="0.54"/>
<rect x="122" y="57" width="111" height="1" rx="0.5" fill="black" fill-opacity="0.54"/>
<rect x="122" y="87" width="111" height="1" rx="0.5" fill="black" fill-opacity="0.54"/>
<rect x="122" y="102" width="111" height="1" rx="0.5" fill="black" fill-opacity="0.54"/>
<rect x="122" y="117" width="111" height="1" rx="0.5" fill="black" fill-opacity="0.54"/>
<rect x="122" y="132" width="111" height="1" rx="0.5" fill="black" fill-opacity="0.54"/>
<rect x="122" y="147" width="111" height="1" rx="0.5" fill="black" fill-opacity="0.54"/>
</svg>
