<svg width="265" height="187" viewBox="0 0 265 187" fill="none" xmlns="http://www.w3.org/2000/svg">
<rect width="265" height="187" rx="15" fill="#00FFAB"/>
<rect x="26" y="41" width="214" height="1" rx="0.5" fill="black" fill-opacity="0.54"/>
<rect x="26" y="26" width="214" height="1" rx="0.5" fill="black" fill-opacity="0.54"/>
<rect x="26" y="56" width="214" height="1" rx="0.5" fill="black" fill-opacity="0.54"/>
<rect x="26" y="71" width="214" height="1" rx="0.5" fill="black" fill-opacity="0.54"/>
<rect x="26" y="86" width="214" height="1" rx="0.5" fill="black" fill-opacity="0.54"/>
<rect x="26" y="101" width="214" height="1" rx="0.5" fill="black" fill-opacity="0.54"/>
<rect x="26" y="116" width="214" height="1" rx="0.5" fill="black" fill-opacity="0.54"/>
<rect x="173" y="138" width="67" height="1" rx="0.5" fill="black" fill-opacity="0.54"/>
<rect x="173" y="153" width="67" height="1" rx="0.5" fill="black" fill-opacity="0.54"/>
<rect x="173" y="168" width="67" height="1" rx="0.5" fill="black" fill-opacity="0.54"/>
<rect x="1" y="1" width="263" height="185" rx="14" stroke="black" stroke-opacity="0.54" stroke-width="2"/>
</svg>
