<svg id="T8keFw" xmlns="http://www.w3.org/2000/svg" width="33.516" height="33.514" viewBox="0 0 33.516 33.514">
  <g id="Grupo_87" data-name="Grupo 87" transform="translate(0 0)">
    <path id="Caminho_11243" data-name="Caminho 11243" d="M3322.926,478.307h2.095c.56.072,1.124.123,1.68.22a16.4,16.4,0,0,1,10,5.667,16.735,16.735,0,0,1-23.793,23.427,16.5,16.5,0,0,1-5.427-9.637c-.112-.62-.175-1.248-.261-1.873v-2.095c.05-.409.093-.819.152-1.226a16.809,16.809,0,0,1,13.719-14.226C3321.7,478.457,3322.313,478.392,3322.926,478.307Zm5.495,10.96v-3.3a.618.618,0,0,0-.134-.033c-1.036,0-2.074-.052-3.107,0a3.561,3.561,0,0,0-3.722,3.244,22.728,22.728,0,0,0-.085,2.644c0,.126-.011.251-.019.414h-1.878v3.425h1.9v9.688h4.046v-9.711h2.722l.349-3.424h-3.077c0-.629,0-1.226,0-1.824,0-.876.25-1.122,1.133-1.122Z" transform="translate(-3307.216 -478.307)"/>
  </g>
</svg>
