<svg width="600" height="1212" viewBox="0 0 600 1212" fill="none" xmlns="http://www.w3.org/2000/svg">
<g opacity="0.23" clip-path="url(#clip0)">
<rect width="600" height="606" fill="white"/>
<path d="M393.241 -104.472C372.073 -127.49 342.168 -139 303.525 -139C263.879 -139 232.546 -126.82 209.528 -102.46C186.51 -78.1001 175 -43.9093 175 0.112429C175 43.7957 187.516 77.817 212.549 102.176C237.582 126.536 272.445 138.716 317.138 138.718C349.396 138.718 378.628 132.165 404.837 119.061C411.561 115.702 414.082 110.83 412.4 104.444L403.826 80.7563C400.803 72.6909 395.764 70.3385 388.709 73.6991C368.237 84.0313 345.614 89.3843 322.682 89.3225C299.498 89.3225 280.764 83.5266 266.481 71.9348C255.376 62.9187 247.778 51.3106 243.684 37.1104C241.712 30.2671 238.091 15.9705 238.091 -3.65654C238.091 -13.2115 239.828 -24.5714 241.314 -33.055C247.92 -70.7552 268.994 -89.6056 304.536 -89.6061C324.028 -89.6061 338.896 -83.5574 349.142 -71.4598C359.394 -59.3659 364.518 -42.5648 364.513 -21.0566V-18.0352H335.179C327.399 -18.0349 319.933 -14.9653 314.403 -9.49296C308.872 -4.02067 305.724 3.41242 305.641 11.1922L305.636 11.6084C305.619 13.2693 305.93 14.9173 306.554 16.4569C307.177 17.9965 308.1 19.3973 309.268 20.578C310.436 21.7588 311.827 22.6962 313.36 23.336C314.893 23.9758 316.538 24.3052 318.199 24.3053H412.906C414.494 24.3052 416.067 23.9923 417.534 23.3844C419.002 22.7765 420.335 21.8855 421.458 20.7622C422.581 19.639 423.472 18.3055 424.08 16.838C424.687 15.3705 425 13.7976 425 12.2093V-12.4887C425 -50.7948 414.414 -81.4558 393.241 -104.472Z" fill="#FFCD00"/>
<path d="M693.241 -104.472C672.073 -127.49 642.168 -139 603.525 -139C563.879 -139 532.546 -126.82 509.528 -102.46C486.51 -78.1001 475 -43.9093 475 0.112429C475 43.7957 487.516 77.817 512.549 102.176C537.582 126.536 572.445 138.716 617.138 138.718C649.396 138.718 678.628 132.165 704.837 119.061C711.561 115.702 714.082 110.83 712.4 104.444L703.826 80.7563C700.803 72.6909 695.764 70.3385 688.709 73.6991C668.237 84.0313 645.614 89.3843 622.682 89.3225C599.498 89.3225 580.764 83.5266 566.481 71.9348C555.376 62.9187 547.778 51.3106 543.684 37.1104C541.712 30.2671 538.091 15.9705 538.091 -3.65654C538.091 -13.2115 539.828 -24.5714 541.314 -33.055C547.92 -70.7552 568.994 -89.6056 604.536 -89.6061C624.028 -89.6061 638.896 -83.5574 649.142 -71.4598C659.394 -59.3659 664.518 -42.5648 664.513 -21.0566V-18.0352H635.179C627.399 -18.0349 619.933 -14.9653 614.403 -9.49296C608.872 -4.02067 605.724 3.41242 605.641 11.1922L605.636 11.6084C605.619 13.2693 605.93 14.9173 606.554 16.4569C607.177 17.9965 608.1 19.3973 609.268 20.578C610.436 21.7588 611.827 22.6962 613.36 23.336C614.893 23.9758 616.538 24.3052 618.199 24.3053H712.906C714.494 24.3052 716.067 23.9923 717.534 23.3844C719.002 22.7765 720.335 21.8855 721.458 20.7622C722.581 19.639 723.472 18.3055 724.08 16.838C724.687 15.3705 725 13.7976 725 12.2093V-12.4887C725 -50.7948 714.414 -81.4558 693.241 -104.472Z" fill="#FFCD00"/>
<path d="M93.2406 -104.472C72.073 -127.49 42.1678 -139 3.52497 -139C-36.1213 -139 -67.4536 -126.82 -90.472 -102.46C-113.49 -78.1001 -125 -43.9093 -125 0.112429C-125 43.7957 -112.484 77.817 -87.4507 102.176C-62.4178 126.536 -27.5549 138.716 17.1381 138.718C49.3955 138.718 78.6285 132.165 104.837 119.061C111.561 115.702 114.082 110.83 112.4 104.444L103.826 80.7563C100.803 72.6909 95.7645 70.3385 88.709 73.6991C68.2365 84.0313 45.6139 89.3843 22.682 89.3225C-0.502057 89.3225 -19.2357 83.5266 -33.5188 71.9348C-44.6235 62.9187 -52.2225 51.3106 -56.3157 37.1104C-58.2882 30.2671 -61.9088 15.9705 -61.9088 -3.65654C-61.9088 -13.2115 -60.1723 -24.5714 -58.686 -33.055C-52.0802 -70.7552 -31.0062 -89.6056 4.53607 -89.6061C24.0276 -89.6061 38.8961 -83.5574 49.1417 -71.4598C59.3945 -59.3659 64.5181 -42.5648 64.5127 -21.0566V-18.0352H35.1792C27.399 -18.0349 19.933 -14.9653 14.4026 -9.49296C8.87217 -4.02067 5.72383 3.41242 5.64126 11.1922L5.63612 11.6084C5.61854 13.2693 5.93049 14.9173 6.55393 16.4569C7.17737 17.9965 8.09991 19.3973 9.26819 20.578C10.4365 21.7588 11.8273 22.6962 13.3602 23.336C14.8932 23.9758 16.5377 24.3052 18.1988 24.3053H112.906C114.494 24.3052 116.067 23.9923 117.534 23.3844C119.002 22.7765 120.335 21.8855 121.458 20.7622C122.581 19.639 123.472 18.3055 124.08 16.838C124.687 15.3705 125 13.7976 125 12.2093V-12.4887C125 -50.7948 114.414 -81.4558 93.2406 -104.472Z" fill="#FFCD00"/>
<path d="M393.241 501.528C372.073 478.51 342.168 467 303.525 467C263.879 467 232.546 479.18 209.528 503.54C186.51 527.9 175 562.091 175 606.112C175 649.796 187.516 683.817 212.549 708.176C237.582 732.536 272.445 744.716 317.138 744.718C349.396 744.718 378.628 738.165 404.837 725.061C411.561 721.702 414.082 716.83 412.4 710.444L403.826 686.756C400.803 678.691 395.764 676.338 388.709 679.699C368.237 690.031 345.614 695.384 322.682 695.322C299.498 695.322 280.764 689.527 266.481 677.935C255.376 668.919 247.778 657.311 243.684 643.11C241.712 636.267 238.091 621.971 238.091 602.343C238.091 592.788 239.828 581.429 241.314 572.945C247.92 535.245 268.994 516.394 304.536 516.394C324.028 516.394 338.896 522.443 349.142 534.54C359.394 546.634 364.518 563.435 364.513 584.943V587.965H335.179C327.399 587.965 319.933 591.035 314.403 596.507C308.872 601.979 305.724 609.412 305.641 617.192L305.636 617.608C305.619 619.269 305.93 620.917 306.554 622.457C307.177 623.997 308.1 625.397 309.268 626.578C310.436 627.759 311.827 628.696 313.36 629.336C314.893 629.976 316.538 630.305 318.199 630.305H412.906C414.494 630.305 416.067 629.992 417.534 629.384C419.002 628.776 420.335 627.885 421.458 626.762C422.581 625.639 423.472 624.306 424.08 622.838C424.687 621.37 425 619.798 425 618.209V593.511C425 555.205 414.414 524.544 393.241 501.528Z" fill="#FFCD00"/>
<path d="M693.241 501.528C672.073 478.51 642.168 467 603.525 467C563.879 467 532.546 479.18 509.528 503.54C486.51 527.9 475 562.091 475 606.112C475 649.796 487.516 683.817 512.549 708.176C537.582 732.536 572.445 744.716 617.138 744.718C649.396 744.718 678.628 738.165 704.837 725.061C711.561 721.702 714.082 716.83 712.4 710.444L703.826 686.756C700.803 678.691 695.764 676.338 688.709 679.699C668.237 690.031 645.614 695.384 622.682 695.322C599.498 695.322 580.764 689.527 566.481 677.935C555.376 668.919 547.778 657.311 543.684 643.11C541.712 636.267 538.091 621.971 538.091 602.343C538.091 592.788 539.828 581.429 541.314 572.945C547.92 535.245 568.994 516.394 604.536 516.394C624.028 516.394 638.896 522.443 649.142 534.54C659.394 546.634 664.518 563.435 664.513 584.943V587.965H635.179C627.399 587.965 619.933 591.035 614.403 596.507C608.872 601.979 605.724 609.412 605.641 617.192L605.636 617.608C605.619 619.269 605.93 620.917 606.554 622.457C607.177 623.997 608.1 625.397 609.268 626.578C610.436 627.759 611.827 628.696 613.36 629.336C614.893 629.976 616.538 630.305 618.199 630.305H712.906C714.494 630.305 716.067 629.992 717.534 629.384C719.002 628.776 720.335 627.885 721.458 626.762C722.581 625.639 723.472 624.306 724.08 622.838C724.687 621.37 725 619.798 725 618.209V593.511C725 555.205 714.414 524.544 693.241 501.528Z" fill="#FFCD00"/>
<path d="M93.2406 501.528C72.073 478.51 42.1678 467 3.52497 467C-36.1213 467 -67.4536 479.18 -90.472 503.54C-113.49 527.9 -125 562.091 -125 606.112C-125 649.796 -112.484 683.817 -87.4507 708.176C-62.4178 732.536 -27.5549 744.716 17.1381 744.718C49.3955 744.718 78.6285 738.165 104.837 725.061C111.561 721.702 114.082 716.83 112.4 710.444L103.826 686.756C100.803 678.691 95.7645 676.338 88.709 679.699C68.2365 690.031 45.6139 695.384 22.682 695.322C-0.502057 695.322 -19.2357 689.527 -33.5188 677.935C-44.6235 668.919 -52.2225 657.311 -56.3157 643.11C-58.2882 636.267 -61.9088 621.971 -61.9088 602.343C-61.9088 592.788 -60.1723 581.429 -58.686 572.945C-52.0802 535.245 -31.0062 516.394 4.53607 516.394C24.0276 516.394 38.8961 522.443 49.1417 534.54C59.3945 546.634 64.5181 563.435 64.5127 584.943V587.965H35.1792C27.399 587.965 19.933 591.035 14.4026 596.507C8.87217 601.979 5.72383 609.412 5.64126 617.192L5.63612 617.608C5.61854 619.269 5.93049 620.917 6.55393 622.457C7.17737 623.997 8.09991 625.397 9.26819 626.578C10.4365 627.759 11.8273 628.696 13.3602 629.336C14.8932 629.976 16.5377 630.305 18.1988 630.305H112.906C114.494 630.305 116.067 629.992 117.534 629.384C119.002 628.776 120.335 627.885 121.458 626.762C122.581 625.639 123.472 624.306 124.08 622.838C124.687 621.37 125 619.798 125 618.209V593.511C125 555.205 114.414 524.544 93.2406 501.528Z" fill="#FFCD00"/>
<path d="M393.241 198.528C372.073 175.51 342.168 164 303.525 164C263.879 164 232.546 176.18 209.528 200.54C186.51 224.9 175 259.091 175 303.112C175 346.796 187.516 380.817 212.549 405.176C237.582 429.536 272.445 441.716 317.138 441.718C349.396 441.718 378.628 435.165 404.837 422.061C411.561 418.702 414.082 413.83 412.4 407.444L403.826 383.756C400.803 375.691 395.764 373.338 388.709 376.699C368.237 387.031 345.614 392.384 322.682 392.322C299.498 392.322 280.764 386.527 266.481 374.935C255.376 365.919 247.778 354.311 243.684 340.11C241.712 333.267 238.091 318.971 238.091 299.343C238.091 289.788 239.828 278.429 241.314 269.945C247.92 232.245 268.994 213.394 304.536 213.394C324.028 213.394 338.896 219.443 349.142 231.54C359.394 243.634 364.518 260.435 364.513 281.943V284.965H335.179C327.399 284.965 319.933 288.035 314.403 293.507C308.872 298.979 305.724 306.412 305.641 314.192L305.636 314.608C305.619 316.269 305.93 317.917 306.554 319.457C307.177 320.997 308.1 322.397 309.268 323.578C310.436 324.759 311.827 325.696 313.36 326.336C314.893 326.976 316.538 327.305 318.199 327.305H412.906C414.494 327.305 416.067 326.992 417.534 326.384C419.002 325.776 420.335 324.885 421.458 323.762C422.581 322.639 423.472 321.306 424.08 319.838C424.687 318.37 425 316.798 425 315.209V290.511C425 252.205 414.414 221.544 393.241 198.528Z" fill="#FFCD00"/>
<path d="M693.241 198.528C672.073 175.51 642.168 164 603.525 164C563.879 164 532.546 176.18 509.528 200.54C486.51 224.9 475 259.091 475 303.112C475 346.796 487.516 380.817 512.549 405.176C537.582 429.536 572.445 441.716 617.138 441.718C649.396 441.718 678.628 435.165 704.837 422.061C711.561 418.702 714.082 413.83 712.4 407.444L703.826 383.756C700.803 375.691 695.764 373.338 688.709 376.699C668.237 387.031 645.614 392.384 622.682 392.322C599.498 392.322 580.764 386.527 566.481 374.935C555.376 365.919 547.778 354.311 543.684 340.11C541.712 333.267 538.091 318.971 538.091 299.343C538.091 289.788 539.828 278.429 541.314 269.945C547.92 232.245 568.994 213.394 604.536 213.394C624.028 213.394 638.896 219.443 649.142 231.54C659.394 243.634 664.518 260.435 664.513 281.943V284.965H635.179C627.399 284.965 619.933 288.035 614.403 293.507C608.872 298.979 605.724 306.412 605.641 314.192L605.636 314.608C605.619 316.269 605.93 317.917 606.554 319.457C607.177 320.997 608.1 322.397 609.268 323.578C610.436 324.759 611.827 325.696 613.36 326.336C614.893 326.976 616.538 327.305 618.199 327.305H712.906C714.494 327.305 716.067 326.992 717.534 326.384C719.002 325.776 720.335 324.885 721.458 323.762C722.581 322.639 723.472 321.306 724.08 319.838C724.687 318.37 725 316.798 725 315.209V290.511C725 252.205 714.414 221.544 693.241 198.528Z" fill="#FFCD00"/>
<path d="M93.2406 198.528C72.073 175.51 42.1678 164 3.52497 164C-36.1213 164 -67.4536 176.18 -90.472 200.54C-113.49 224.9 -125 259.091 -125 303.112C-125 346.796 -112.484 380.817 -87.4507 405.176C-62.4178 429.536 -27.5549 441.716 17.1381 441.718C49.3955 441.718 78.6285 435.165 104.837 422.061C111.561 418.702 114.082 413.83 112.4 407.444L103.826 383.756C100.803 375.691 95.7645 373.338 88.709 376.699C68.2365 387.031 45.6139 392.384 22.682 392.322C-0.502057 392.322 -19.2357 386.527 -33.5188 374.935C-44.6235 365.919 -52.2225 354.311 -56.3157 340.11C-58.2882 333.267 -61.9088 318.971 -61.9088 299.343C-61.9088 289.788 -60.1723 278.429 -58.686 269.945C-52.0802 232.245 -31.0062 213.394 4.53607 213.394C24.0276 213.394 38.8961 219.443 49.1417 231.54C59.3945 243.634 64.5181 260.435 64.5127 281.943V284.965H35.1792C27.399 284.965 19.933 288.035 14.4026 293.507C8.87217 298.979 5.72383 306.412 5.64126 314.192L5.63612 314.608C5.61854 316.269 5.93049 317.917 6.55393 319.457C7.17737 320.997 8.09991 322.397 9.26819 323.578C10.4365 324.759 11.8273 325.696 13.3602 326.336C14.8932 326.976 16.5377 327.305 18.1988 327.305H112.906C114.494 327.305 116.067 326.992 117.534 326.384C119.002 325.776 120.335 324.885 121.458 323.762C122.581 322.639 123.472 321.306 124.08 319.838C124.687 318.37 125 316.798 125 315.209V290.511C125 252.205 114.414 221.544 93.2406 198.528Z" fill="#FFCD00"/>
</g>
<g opacity="0.23" clip-path="url(#clip1)">
<rect width="600" height="606" transform="translate(0 606)" fill="white"/>
<path d="M393.241 501.528C372.073 478.51 342.168 467 303.525 467C263.879 467 232.546 479.18 209.528 503.54C186.51 527.9 175 562.091 175 606.112C175 649.796 187.516 683.817 212.549 708.176C237.582 732.536 272.445 744.716 317.138 744.718C349.396 744.718 378.628 738.165 404.837 725.061C411.561 721.702 414.082 716.83 412.4 710.444L403.826 686.756C400.803 678.691 395.764 676.338 388.709 679.699C368.237 690.031 345.614 695.384 322.682 695.322C299.498 695.322 280.764 689.527 266.481 677.935C255.376 668.919 247.778 657.311 243.684 643.11C241.712 636.267 238.091 621.971 238.091 602.343C238.091 592.788 239.828 581.429 241.314 572.945C247.92 535.245 268.994 516.394 304.536 516.394C324.028 516.394 338.896 522.443 349.142 534.54C359.394 546.634 364.518 563.435 364.513 584.943V587.965H335.179C327.399 587.965 319.933 591.035 314.403 596.507C308.872 601.979 305.724 609.412 305.641 617.192L305.636 617.608C305.619 619.269 305.93 620.917 306.554 622.457C307.177 623.997 308.1 625.397 309.268 626.578C310.436 627.759 311.827 628.696 313.36 629.336C314.893 629.976 316.538 630.305 318.199 630.305H412.906C414.494 630.305 416.067 629.992 417.534 629.384C419.002 628.776 420.335 627.885 421.458 626.762C422.581 625.639 423.472 624.306 424.08 622.838C424.687 621.37 425 619.798 425 618.209V593.511C425 555.205 414.414 524.544 393.241 501.528Z" fill="#FFCD00"/>
<path d="M693.241 501.528C672.073 478.51 642.168 467 603.525 467C563.879 467 532.546 479.18 509.528 503.54C486.51 527.9 475 562.091 475 606.112C475 649.796 487.516 683.817 512.549 708.176C537.582 732.536 572.445 744.716 617.138 744.718C649.396 744.718 678.628 738.165 704.837 725.061C711.561 721.702 714.082 716.83 712.4 710.444L703.826 686.756C700.803 678.691 695.764 676.338 688.709 679.699C668.237 690.031 645.614 695.384 622.682 695.322C599.498 695.322 580.764 689.527 566.481 677.935C555.376 668.919 547.778 657.311 543.684 643.11C541.712 636.267 538.091 621.971 538.091 602.343C538.091 592.788 539.828 581.429 541.314 572.945C547.92 535.245 568.994 516.394 604.536 516.394C624.028 516.394 638.896 522.443 649.142 534.54C659.394 546.634 664.518 563.435 664.513 584.943V587.965H635.179C627.399 587.965 619.933 591.035 614.403 596.507C608.872 601.979 605.724 609.412 605.641 617.192L605.636 617.608C605.619 619.269 605.93 620.917 606.554 622.457C607.177 623.997 608.1 625.397 609.268 626.578C610.436 627.759 611.827 628.696 613.36 629.336C614.893 629.976 616.538 630.305 618.199 630.305H712.906C714.494 630.305 716.067 629.992 717.534 629.384C719.002 628.776 720.335 627.885 721.458 626.762C722.581 625.639 723.472 624.306 724.08 622.838C724.687 621.37 725 619.798 725 618.209V593.511C725 555.205 714.414 524.544 693.241 501.528Z" fill="#FFCD00"/>
<path d="M93.2406 501.528C72.073 478.51 42.1678 467 3.52497 467C-36.1213 467 -67.4536 479.18 -90.472 503.54C-113.49 527.9 -125 562.091 -125 606.112C-125 649.796 -112.484 683.817 -87.4507 708.176C-62.4178 732.536 -27.5549 744.716 17.1381 744.718C49.3955 744.718 78.6285 738.165 104.837 725.061C111.561 721.702 114.082 716.83 112.4 710.444L103.826 686.756C100.803 678.691 95.7645 676.338 88.709 679.699C68.2365 690.031 45.6139 695.384 22.682 695.322C-0.502057 695.322 -19.2357 689.527 -33.5188 677.935C-44.6235 668.919 -52.2225 657.311 -56.3157 643.11C-58.2882 636.267 -61.9088 621.971 -61.9088 602.343C-61.9088 592.788 -60.1723 581.429 -58.686 572.945C-52.0802 535.245 -31.0062 516.394 4.53607 516.394C24.0276 516.394 38.8961 522.443 49.1417 534.54C59.3945 546.634 64.5181 563.435 64.5127 584.943V587.965H35.1792C27.399 587.965 19.933 591.035 14.4026 596.507C8.87217 601.979 5.72383 609.412 5.64126 617.192L5.63612 617.608C5.61854 619.269 5.93049 620.917 6.55393 622.457C7.17737 623.997 8.09991 625.397 9.26819 626.578C10.4365 627.759 11.8273 628.696 13.3602 629.336C14.8932 629.976 16.5377 630.305 18.1988 630.305H112.906C114.494 630.305 116.067 629.992 117.534 629.384C119.002 628.776 120.335 627.885 121.458 626.762C122.581 625.639 123.472 624.306 124.08 622.838C124.687 621.37 125 619.798 125 618.209V593.511C125 555.205 114.414 524.544 93.2406 501.528Z" fill="#FFCD00"/>
<path d="M393.241 1107.53C372.073 1084.51 342.168 1073 303.525 1073C263.879 1073 232.546 1085.18 209.528 1109.54C186.51 1133.9 175 1168.09 175 1212.11C175 1255.8 187.516 1289.82 212.549 1314.18C237.582 1338.54 272.445 1350.72 317.138 1350.72C349.396 1350.72 378.628 1344.17 404.837 1331.06C411.561 1327.7 414.082 1322.83 412.4 1316.44L403.826 1292.76C400.803 1284.69 395.764 1282.34 388.709 1285.7C368.237 1296.03 345.614 1301.38 322.682 1301.32C299.498 1301.32 280.764 1295.53 266.481 1283.93C255.376 1274.92 247.778 1263.31 243.684 1249.11C241.712 1242.27 238.091 1227.97 238.091 1208.34C238.091 1198.79 239.828 1187.43 241.314 1178.94C247.92 1141.24 268.994 1122.39 304.536 1122.39C324.028 1122.39 338.896 1128.44 349.142 1140.54C359.394 1152.63 364.518 1169.44 364.513 1190.94V1193.96H335.179C327.399 1193.97 319.933 1197.03 314.403 1202.51C308.872 1207.98 305.724 1215.41 305.641 1223.19L305.636 1223.61C305.619 1225.27 305.93 1226.92 306.554 1228.46C307.177 1230 308.1 1231.4 309.268 1232.58C310.436 1233.76 311.827 1234.7 313.36 1235.34C314.893 1235.98 316.538 1236.31 318.199 1236.31H412.906C414.494 1236.31 416.067 1235.99 417.534 1235.38C419.002 1234.78 420.335 1233.89 421.458 1232.76C422.581 1231.64 423.472 1230.31 424.08 1228.84C424.687 1227.37 425 1225.8 425 1224.21V1199.51C425 1161.21 414.414 1130.54 393.241 1107.53Z" fill="#FFCD00"/>
<path d="M693.241 1107.53C672.073 1084.51 642.168 1073 603.525 1073C563.879 1073 532.546 1085.18 509.528 1109.54C486.51 1133.9 475 1168.09 475 1212.11C475 1255.8 487.516 1289.82 512.549 1314.18C537.582 1338.54 572.445 1350.72 617.138 1350.72C649.396 1350.72 678.628 1344.17 704.837 1331.06C711.561 1327.7 714.082 1322.83 712.4 1316.44L703.826 1292.76C700.803 1284.69 695.764 1282.34 688.709 1285.7C668.237 1296.03 645.614 1301.38 622.682 1301.32C599.498 1301.32 580.764 1295.53 566.481 1283.93C555.376 1274.92 547.778 1263.31 543.684 1249.11C541.712 1242.27 538.091 1227.97 538.091 1208.34C538.091 1198.79 539.828 1187.43 541.314 1178.94C547.92 1141.24 568.994 1122.39 604.536 1122.39C624.028 1122.39 638.896 1128.44 649.142 1140.54C659.394 1152.63 664.518 1169.44 664.513 1190.94V1193.96H635.179C627.399 1193.97 619.933 1197.03 614.403 1202.51C608.872 1207.98 605.724 1215.41 605.641 1223.19L605.636 1223.61C605.619 1225.27 605.93 1226.92 606.554 1228.46C607.177 1230 608.1 1231.4 609.268 1232.58C610.436 1233.76 611.827 1234.7 613.36 1235.34C614.893 1235.98 616.538 1236.31 618.199 1236.31H712.906C714.494 1236.31 716.067 1235.99 717.534 1235.38C719.002 1234.78 720.335 1233.89 721.458 1232.76C722.581 1231.64 723.472 1230.31 724.08 1228.84C724.687 1227.37 725 1225.8 725 1224.21V1199.51C725 1161.21 714.414 1130.54 693.241 1107.53Z" fill="#FFCD00"/>
<path d="M93.2406 1107.53C72.073 1084.51 42.1678 1073 3.52497 1073C-36.1213 1073 -67.4536 1085.18 -90.472 1109.54C-113.49 1133.9 -125 1168.09 -125 1212.11C-125 1255.8 -112.484 1289.82 -87.4507 1314.18C-62.4178 1338.54 -27.5549 1350.72 17.1381 1350.72C49.3955 1350.72 78.6285 1344.17 104.837 1331.06C111.561 1327.7 114.082 1322.83 112.4 1316.44L103.826 1292.76C100.803 1284.69 95.7645 1282.34 88.709 1285.7C68.2365 1296.03 45.6139 1301.38 22.682 1301.32C-0.502057 1301.32 -19.2357 1295.53 -33.5188 1283.93C-44.6235 1274.92 -52.2225 1263.31 -56.3157 1249.11C-58.2882 1242.27 -61.9088 1227.97 -61.9088 1208.34C-61.9088 1198.79 -60.1723 1187.43 -58.686 1178.94C-52.0802 1141.24 -31.0062 1122.39 4.53607 1122.39C24.0276 1122.39 38.8961 1128.44 49.1417 1140.54C59.3945 1152.63 64.5181 1169.44 64.5127 1190.94V1193.96H35.1792C27.399 1193.97 19.933 1197.03 14.4026 1202.51C8.87217 1207.98 5.72383 1215.41 5.64126 1223.19L5.63612 1223.61C5.61854 1225.27 5.93049 1226.92 6.55393 1228.46C7.17737 1230 8.09991 1231.4 9.26819 1232.58C10.4365 1233.76 11.8273 1234.7 13.3602 1235.34C14.8932 1235.98 16.5377 1236.31 18.1988 1236.31H112.906C114.494 1236.31 116.067 1235.99 117.534 1235.38C119.002 1234.78 120.335 1233.89 121.458 1232.76C122.581 1231.64 123.472 1230.31 124.08 1228.84C124.687 1227.37 125 1225.8 125 1224.21V1199.51C125 1161.21 114.414 1130.54 93.2406 1107.53Z" fill="#FFCD00"/>
<path d="M393.241 804.528C372.073 781.51 342.168 770 303.525 770C263.879 770 232.546 782.18 209.528 806.54C186.51 830.9 175 865.091 175 909.112C175 952.796 187.516 986.817 212.549 1011.18C237.582 1035.54 272.445 1047.72 317.138 1047.72C349.396 1047.72 378.628 1041.17 404.837 1028.06C411.561 1024.7 414.082 1019.83 412.4 1013.44L403.826 989.756C400.803 981.691 395.764 979.338 388.709 982.699C368.237 993.031 345.614 998.384 322.682 998.322C299.498 998.322 280.764 992.527 266.481 980.935C255.376 971.919 247.778 960.311 243.684 946.11C241.712 939.267 238.091 924.971 238.091 905.343C238.091 895.788 239.828 884.429 241.314 875.945C247.92 838.245 268.994 819.394 304.536 819.394C324.028 819.394 338.896 825.443 349.142 837.54C359.394 849.634 364.518 866.435 364.513 887.943V890.965H335.179C327.399 890.965 319.933 894.035 314.403 899.507C308.872 904.979 305.724 912.412 305.641 920.192L305.636 920.608C305.619 922.269 305.93 923.917 306.554 925.457C307.177 926.997 308.1 928.397 309.268 929.578C310.436 930.759 311.827 931.696 313.36 932.336C314.893 932.976 316.538 933.305 318.199 933.305H412.906C414.494 933.305 416.067 932.992 417.534 932.384C419.002 931.776 420.335 930.885 421.458 929.762C422.581 928.639 423.472 927.306 424.08 925.838C424.687 924.37 425 922.798 425 921.209V896.511C425 858.205 414.414 827.544 393.241 804.528Z" fill="#FFCD00"/>
<path d="M693.241 804.528C672.073 781.51 642.168 770 603.525 770C563.879 770 532.546 782.18 509.528 806.54C486.51 830.9 475 865.091 475 909.112C475 952.796 487.516 986.817 512.549 1011.18C537.582 1035.54 572.445 1047.72 617.138 1047.72C649.396 1047.72 678.628 1041.17 704.837 1028.06C711.561 1024.7 714.082 1019.83 712.4 1013.44L703.826 989.756C700.803 981.691 695.764 979.338 688.709 982.699C668.237 993.031 645.614 998.384 622.682 998.322C599.498 998.322 580.764 992.527 566.481 980.935C555.376 971.919 547.778 960.311 543.684 946.11C541.712 939.267 538.091 924.971 538.091 905.343C538.091 895.788 539.828 884.429 541.314 875.945C547.92 838.245 568.994 819.394 604.536 819.394C624.028 819.394 638.896 825.443 649.142 837.54C659.394 849.634 664.518 866.435 664.513 887.943V890.965H635.179C627.399 890.965 619.933 894.035 614.403 899.507C608.872 904.979 605.724 912.412 605.641 920.192L605.636 920.608C605.619 922.269 605.93 923.917 606.554 925.457C607.177 926.997 608.1 928.397 609.268 929.578C610.436 930.759 611.827 931.696 613.36 932.336C614.893 932.976 616.538 933.305 618.199 933.305H712.906C714.494 933.305 716.067 932.992 717.534 932.384C719.002 931.776 720.335 930.885 721.458 929.762C722.581 928.639 723.472 927.306 724.08 925.838C724.687 924.37 725 922.798 725 921.209V896.511C725 858.205 714.414 827.544 693.241 804.528Z" fill="#FFCD00"/>
<path d="M93.2406 804.528C72.073 781.51 42.1678 770 3.52497 770C-36.1213 770 -67.4536 782.18 -90.472 806.54C-113.49 830.9 -125 865.091 -125 909.112C-125 952.796 -112.484 986.817 -87.4507 1011.18C-62.4178 1035.54 -27.5549 1047.72 17.1381 1047.72C49.3955 1047.72 78.6285 1041.17 104.837 1028.06C111.561 1024.7 114.082 1019.83 112.4 1013.44L103.826 989.756C100.803 981.691 95.7645 979.338 88.709 982.699C68.2365 993.031 45.6139 998.384 22.682 998.322C-0.502057 998.322 -19.2357 992.527 -33.5188 980.935C-44.6235 971.919 -52.2225 960.311 -56.3157 946.11C-58.2882 939.267 -61.9088 924.971 -61.9088 905.343C-61.9088 895.788 -60.1723 884.429 -58.686 875.945C-52.0802 838.245 -31.0062 819.394 4.53607 819.394C24.0276 819.394 38.8961 825.443 49.1417 837.54C59.3945 849.634 64.5181 866.435 64.5127 887.943V890.965H35.1792C27.399 890.965 19.933 894.035 14.4026 899.507C8.87217 904.979 5.72383 912.412 5.64126 920.192L5.63612 920.608C5.61854 922.269 5.93049 923.917 6.55393 925.457C7.17737 926.997 8.09991 928.397 9.26819 929.578C10.4365 930.759 11.8273 931.696 13.3602 932.336C14.8932 932.976 16.5377 933.305 18.1988 933.305H112.906C114.494 933.305 116.067 932.992 117.534 932.384C119.002 931.776 120.335 930.885 121.458 929.762C122.581 928.639 123.472 927.306 124.08 925.838C124.687 924.37 125 922.798 125 921.209V896.511C125 858.205 114.414 827.544 93.2406 804.528Z" fill="#FFCD00"/>
</g>
<defs>
<clipPath id="clip0">
<rect width="600" height="606" fill="white"/>
</clipPath>
<clipPath id="clip1">
<rect width="600" height="606" fill="white" transform="translate(0 606)"/>
</clipPath>
</defs>
</svg>
