<svg xmlns="http://www.w3.org/2000/svg" width="32.389" height="32.395" viewBox="0 0 32.389 32.395">
  <g id="Grupo_9282" data-name="Grupo 9282" transform="translate(0)">
    <g id="Grupo_88" data-name="Grupo 88" transform="translate(0 0)">
      <path id="Caminho_11244" data-name="Caminho 11244" d="M180.2,154.524a11.829,11.829,0,0,0-.753-3.93,8.3,8.3,0,0,0-4.74-4.74,11.872,11.872,0,0,0-3.93-.753c-1.734-.082-2.285-.1-6.683-.1s-4.949.019-6.677.095a11.844,11.844,0,0,0-3.93.753,8.3,8.3,0,0,0-4.74,4.74,11.874,11.874,0,0,0-.753,3.93c-.082,1.734-.1,2.285-.1,6.683s.019,4.949.095,6.676a11.839,11.839,0,0,0,.753,3.93,8.3,8.3,0,0,0,4.74,4.74,11.867,11.867,0,0,0,3.93.753c1.728.076,2.278.1,6.677.1s4.948-.019,6.676-.1a11.832,11.832,0,0,0,3.93-.753,8.285,8.285,0,0,0,4.74-4.74,11.868,11.868,0,0,0,.753-3.93c.076-1.728.095-2.278.095-6.676s-.006-4.949-.082-6.677Zm-2.917,13.226a8.885,8.885,0,0,1-.557,3.006,5.373,5.373,0,0,1-3.076,3.076,8.919,8.919,0,0,1-3.006.557c-1.709.076-2.221.095-6.543.095s-4.841-.019-6.544-.095a8.882,8.882,0,0,1-3.006-.557,4.984,4.984,0,0,1-1.86-1.209,5.039,5.039,0,0,1-1.209-1.86,8.919,8.919,0,0,1-.557-3.006c-.076-1.709-.095-2.221-.095-6.544s.019-4.841.095-6.544a8.879,8.879,0,0,1,.557-3.006A4.924,4.924,0,0,1,152.7,149.8a5.031,5.031,0,0,1,1.86-1.209,8.924,8.924,0,0,1,3.006-.557c1.709-.076,2.221-.095,6.543-.095s4.841.019,6.544.095a8.886,8.886,0,0,1,3.006.557,5.342,5.342,0,0,1,3.069,3.069,8.92,8.92,0,0,1,.557,3.006c.076,1.709.095,2.221.095,6.544s-.019,4.828-.095,6.537Zm0,0" transform="translate(-147.898 -145)"/>
    </g>
    <path id="Caminho_11245" data-name="Caminho 11245" d="M280.5,269.281a8.322,8.322,0,1,0,8.322,8.322,8.324,8.324,0,0,0-8.322-8.322Zm0,13.72a5.4,5.4,0,1,1,5.4-5.4,5.4,5.4,0,0,1-5.4,5.4Zm0,0" transform="translate(-264.301 -261.402)"/>
    <path id="Caminho_11246" data-name="Caminho 11246" d="M513.148,235.388a1.943,1.943,0,1,1-1.943-1.943,1.943,1.943,0,0,1,1.943,1.943Zm0,0" transform="translate(-486.353 -227.838)"/>
  </g>
</svg>
