<svg id="Grupo_9283" data-name="Grupo 9283" xmlns="http://www.w3.org/2000/svg" width="33.516" height="32.036" viewBox="0 0 33.516 32.036">
  <path id="Caminho_11247" data-name="Caminho 11247" d="M84.064,95a3.745,3.745,0,1,0-.094,7.469h.047A3.746,3.746,0,1,0,84.064,95Zm0,0" transform="translate(-80 -95)"/>
  <rect id="Retângulo_38" data-name="Retângulo 38" width="7.185" height="21.616" transform="translate(0.425 10.42)"/>
  <path id="Caminho_11248" data-name="Caminho 11248" d="M314.657,284.105c-3.876,0-6.475,3.642-6.475,3.642v-3.135H301v21.616h7.185V294.157a4.923,4.923,0,0,1,.237-1.753,3.933,3.933,0,0,1,3.686-2.627c2.6,0,3.64,1.982,3.64,4.888v11.564h7.184V293.834c0-6.639-3.545-9.729-8.272-9.729Zm0,0" transform="translate(-289.412 -274.192)"/>
</svg>
