<svg xmlns="http://www.w3.org/2000/svg" width="64.564" height="86.305" viewBox="0 0 64.564 86.305">
  <g id="mao" transform="translate(-568.727 -270.94)">
    <path id="Path_19239" data-name="Path 19239" d="M631.787,323.154c0,14.486-7.243,18.106-7.243,32.591H584.712v-3.62c0-14.485-14.485-21.728-14.485-28.971V297.8a3.625,3.625,0,0,1,3.622-3.622h0a7.266,7.266,0,0,1,7.243,7.243v10.865a3.62,3.62,0,0,0,3.62,3.62h0a3.621,3.621,0,0,0,3.62-3.62v-34.4a5.433,5.433,0,1,1,10.865-.025v12.7" transform="translate(0 0)" fill="#15fe8a" stroke="#000" stroke-linecap="round" stroke-linejoin="round" stroke-width="3"/>
    <path id="Path_19236" data-name="Path 19236" d="M594.847,306.395V288.287a7.265,7.265,0,0,0-7.243-7.243h-3.62v25.351" transform="translate(15.216 9.516)" fill="#15fe8a" stroke="#000" stroke-linecap="round" stroke-linejoin="round" stroke-width="3"/>
    <path id="Path_19237" data-name="Path 19237" d="M600.007,302.42V291.726a7.265,7.265,0,0,0-7.243-7.243h-3.622v13.725" transform="translate(20.921 13.32)" fill="#15fe8a" stroke="#000" stroke-linecap="round" stroke-linejoin="round" stroke-width="3"/>
    <path id="Path_19238" data-name="Path 19238" d="M605.164,306.03V295.165a7.265,7.265,0,0,0-7.243-7.243H594.3v10.865" transform="translate(26.627 17.124)" fill="#15fe8a" stroke="#000" stroke-linecap="round" stroke-linejoin="round" stroke-width="3"/>
  </g>
</svg>
