<svg width="54" height="45" viewBox="0 0 54 45" fill="none" xmlns="http://www.w3.org/2000/svg">
<g clip-path="url(#clip0)">
<path d="M41.31 12C41.3503 12.8911 41.2139 13.7813 40.9085 14.6194C40.6032 15.4575 40.135 16.2269 39.531 16.8833C38.9269 17.5396 38.199 18.0699 37.3891 18.4436C36.5791 18.8173 35.7033 19.027 34.8119 19.0607C33.9206 19.0943 33.0314 18.9512 32.1956 18.6396C31.3598 18.3281 30.5939 17.8542 29.9421 17.2452C29.2903 16.6363 28.7654 15.9044 28.3978 15.0917C28.0302 14.279 27.827 13.4016 27.8 12.51C27.79 12.3402 27.79 12.1699 27.8 12V8.00001C27.7575 7.10729 27.8925 6.21501 28.1971 5.37479C28.5017 4.53458 28.9699 3.7631 29.5746 3.105C30.1793 2.44691 30.9085 1.91525 31.72 1.54079C32.5315 1.16633 33.4092 0.956502 34.3023 0.923448C35.1955 0.890394 36.0863 1.03477 36.9232 1.34822C37.7602 1.66167 38.5267 2.13797 39.1784 2.74957C39.8301 3.36117 40.354 4.09593 40.7199 4.91133C41.0858 5.72673 41.2864 6.6066 41.31 7.50001C41.32 7.66653 41.32 7.8335 41.31 8.00001V12Z" fill="#15FE8A" stroke="black" stroke-width="2" stroke-linecap="round" stroke-linejoin="round"/>
<path d="M16.54 13.39C19.6494 13.39 22.17 10.8694 22.17 7.76C22.17 4.65064 19.6494 2.13 16.54 2.13C13.4307 2.13 10.91 4.65064 10.91 7.76C10.91 10.8694 13.4307 13.39 16.54 13.39Z" fill="#15FE8A" stroke="black" stroke-width="2" stroke-linecap="round" stroke-linejoin="round"/>
<path d="M22.21 26.09C20.3715 24.7558 18.2265 23.9063 15.973 23.6201C13.7195 23.3338 11.4302 23.6199 9.31655 24.452C7.20286 25.2842 5.3329 26.6355 3.87936 28.3811C2.42582 30.1268 1.43555 32.2105 1 34.44C0.951708 34.7312 0.96198 35.0292 1.03022 35.3164C1.09846 35.6036 1.2233 35.8743 1.39743 36.1127C1.57156 36.3511 1.79148 36.5523 2.04433 36.7047C2.29718 36.857 2.57788 36.9574 2.87 37C2.99981 37.0099 3.13019 37.0099 3.26 37H14.26" fill="#15FE8A"/>
<path d="M22.21 26.09C20.3715 24.7558 18.2265 23.9063 15.973 23.6201C13.7195 23.3338 11.4302 23.6199 9.31655 24.452C7.20286 25.2842 5.3329 26.6355 3.87936 28.3811C2.42582 30.1268 1.43555 32.2105 1 34.44C0.951708 34.7312 0.96198 35.0292 1.03022 35.3164C1.09846 35.6036 1.2233 35.8743 1.39743 36.1127C1.57156 36.3511 1.79148 36.5523 2.04433 36.7047C2.29718 36.857 2.57788 36.9574 2.87 37C2.99982 37.0099 3.13019 37.0099 3.26 37H14.26" stroke="black" stroke-width="2" stroke-linecap="round" stroke-linejoin="round"/>
<path d="M34.55 25.77C30.2144 25.7676 26.0236 27.3301 22.7479 30.1704C19.4722 33.0106 17.3318 36.9378 16.72 41.23C16.681 41.5287 16.702 41.8321 16.7819 42.1225C16.8618 42.4129 16.999 42.6844 17.1853 42.921C17.3716 43.1577 17.6034 43.3547 17.8669 43.5005C18.1305 43.6463 18.4205 43.7379 18.72 43.77H19.02H50.14C50.7403 43.77 51.3162 43.5322 51.7416 43.1087C52.167 42.6851 52.4073 42.1103 52.41 41.51C52.41 41.41 52.41 41.31 52.41 41.21C51.7931 36.9163 49.6464 32.9899 46.3649 30.153C43.0833 27.3161 38.8877 25.7597 34.55 25.77Z" fill="#15FE8A" stroke="black" stroke-width="2" stroke-linecap="round" stroke-linejoin="round"/>
</g>
<defs>
<clipPath id="clip0">
<rect width="53.41" height="44.79" fill="white"/>
</clipPath>
</defs>
</svg>
