<svg width="187" height="265" viewBox="0 0 187 265" fill="none" xmlns="http://www.w3.org/2000/svg">
<rect y="265" width="265" height="187" rx="15" transform="rotate(-90 0 265)" fill="#00FFAB"/>
<circle cx="93.5" cy="113.5" r="66.5" fill="white"/>
<path d="M150.308 191.56C149.98 190.012 149.667 188.416 149.364 186.872C147.886 179.336 146.358 171.542 142.391 164.806C137.838 157.075 130.71 151.944 120.599 149.118C119.5 148.811 118.414 148.492 117.44 148.162C117.329 148.116 117.217 148.076 117.104 148.046C115.704 147.553 114.573 147.032 114.036 146.479C113.53 145.959 113.305 145.045 112.984 143.197C123.044 135.501 130.399 123.026 130.399 112.094V102.363C138.679 98.1685 144.47 88.9873 148.034 74.4511C148.067 74.3155 148.091 74.1775 148.106 74.0381C148.25 72.6474 147.719 71.3934 146.687 70.6839C144.661 69.2911 142.594 70.5238 138.475 72.9809C135.884 74.5268 132.397 76.6075 129.265 77.6703C129.393 77.3417 129.518 77.0216 129.64 76.7091C132.832 68.5115 134.434 64.3971 132.969 59.9708C132.697 59.1498 132.092 58.4974 131.316 58.1898C130.541 57.8822 129.675 57.9511 128.952 58.3778C117.068 65.3962 113.445 64.1081 107.961 62.1577C105.356 61.2312 102.403 60.1812 98.3007 59.7778C85.7757 58.5381 75.4186 61.6002 68.3486 68.6308C61.2294 75.7094 57.7501 86.6696 58.2826 100.328V112.093C58.2826 115.986 59.2212 120.175 61.0194 124.402H50.3175C45.6623 124.402 41.8747 128.369 41.8747 133.246V159.165C40.3485 158.951 39.0543 159.271 38.0156 160.127C36.0175 161.773 35.9019 164.645 36.0408 166.994V195.228C36.0408 201.719 41.0785 207 47.2707 207H66.8516H86.401C87.9461 207 89.1986 205.688 89.1986 204.069C89.1986 202.45 87.9461 201.138 86.401 201.138H69.6492V194.522H76.252C80.9116 194.522 84.7029 190.552 84.7029 185.671V166.847C87.7902 168.102 91.0723 168.744 94.37 168.744C96.8481 168.744 99.3357 168.382 101.754 167.649C108.465 165.613 114.082 160.944 117.783 154.387C118.223 154.517 118.678 154.647 119.157 154.781C138.414 160.163 140.949 173.087 143.883 188.051C144.19 189.617 144.508 191.235 144.845 192.827C145.608 196.437 145.614 198.764 144.863 199.744C144.155 200.669 142.161 201.137 138.939 201.137H125.935V190.973C125.935 189.354 124.682 188.042 123.137 188.042C121.592 188.042 120.339 189.354 120.339 190.973V201.137H111.351C109.806 201.137 108.553 202.45 108.553 204.068C108.553 205.687 109.806 207 111.351 207H138.939C142.45 207 146.792 206.592 149.227 203.414C151.719 200.162 151.113 195.371 150.308 191.56ZM72.2004 72.8825C78.0634 67.0523 86.9063 64.5382 97.7759 65.6138C101.226 65.9535 103.736 66.8457 106.162 67.7089C111.675 69.6688 116.513 71.3908 127.556 65.771C127.052 67.7857 126.012 70.5067 124.459 74.4953C123.81 76.1608 123.075 78.0486 122.276 80.1649C121.953 81.0193 122.032 81.9823 122.488 82.7668C122.944 83.5514 123.724 84.0668 124.597 84.1594C130.058 84.7359 136.488 80.9128 141.198 78.103C137.595 89.5885 132.382 96.0447 125.003 98.2704C117.37 100.573 108.206 98.2727 98.5054 95.8375C91.3357 94.0379 84.0376 92.2059 77.0567 92.2059C72.4837 92.2059 68.0458 92.9925 63.8709 95.0887C64.2659 85.4497 67.0588 77.9954 72.2004 72.8825ZM41.6361 195.229V166.901C41.6361 166.838 41.6338 166.774 41.6302 166.71C41.5833 165.958 41.5911 165.439 41.6169 165.088C41.6413 165.095 41.6666 165.104 41.6924 165.112L46.2032 166.596C47.8763 167.147 48.7241 167.783 48.7241 168.484V172.393C48.7241 174.804 48.8186 176.616 50.0406 177.989C51.3684 179.481 53.1915 179.481 54.9547 179.481H64.0534V201.138H47.2705C44.1637 201.138 41.6361 198.487 41.6361 195.229ZM79.1076 143.863V143.879V185.671C79.1076 187.32 77.8268 188.661 76.2522 188.661H69.6495V178.562C69.6495 175.837 67.5324 173.619 64.9307 173.619H54.9552C54.7966 173.619 54.5697 173.619 54.3394 173.616C54.3274 173.314 54.3202 172.917 54.3202 172.393V168.484C54.3202 166.039 53.2032 162.756 47.8808 161.004L47.4705 160.869V133.246C47.4705 131.602 48.7477 130.264 50.3178 130.264H65.614L65.6182 130.265L65.6224 130.264H76.2522C77.8268 130.264 79.1076 131.602 79.1076 133.246V143.863ZM100.198 162.019C95.0275 163.587 89.4645 162.995 84.7029 160.423V148.399C84.8137 148.443 84.9262 148.493 85.0365 148.535C88.3839 149.845 91.3612 150.499 94.3405 150.499C97.3059 150.499 100.273 149.85 103.608 148.554C105.081 147.982 106.53 147.294 107.946 146.509C108.354 148.094 108.952 149.465 110.115 150.661C110.744 151.308 111.498 151.853 112.401 152.344C109.438 157.111 105.193 160.503 100.198 162.019ZM101.662 143.058C96.2442 145.164 92.4054 145.16 86.9877 143.042C86.2446 142.753 85.4796 142.41 84.7032 142.028V133.246C84.7032 128.37 80.9122 124.402 76.2522 124.402H67.2524C65.0709 120.135 63.8781 115.814 63.8781 112.094V101.811C73.0874 95.4897 84.8134 98.4281 97.2012 101.538C104.154 103.283 111.271 105.069 118.01 105.069C120.327 105.069 122.599 104.853 124.804 104.357V112.094C124.804 123.799 113.991 138.268 101.662 143.058Z" fill="black"/>
<path d="M57.9312 140.508C56.3861 140.508 55.1335 141.82 55.1335 143.439V148.107C55.1335 149.725 56.3861 151.038 57.9312 151.038C59.4762 151.038 60.7288 149.725 60.7288 148.107V143.439C60.7288 141.821 59.4762 140.508 57.9312 140.508Z" fill="black"/>
<path d="M105.887 111.167C104.342 111.167 103.089 112.479 103.089 114.098V114.13C103.089 115.749 104.342 117.061 105.887 117.061C107.432 117.061 108.685 115.749 108.685 114.13V114.098C108.685 112.479 107.432 111.167 105.887 111.167Z" fill="black"/>
<path d="M81.7791 111.167C80.2341 111.167 78.9815 112.479 78.9815 114.098V114.13C78.9815 115.749 80.2341 117.061 81.7791 117.061C83.3242 117.061 84.5767 115.749 84.5767 114.13V114.098C84.5767 112.479 83.3242 111.167 81.7791 111.167Z" fill="black"/>
<path d="M98.8799 201.138C97.3348 201.138 96.0823 202.45 96.0823 204.069C96.0823 205.688 97.3348 207 98.8799 207H98.8877C100.433 207 101.681 205.688 101.681 204.069C101.681 202.451 100.425 201.138 98.8799 201.138Z" fill="black"/>
<rect x="1" y="264" width="263" height="185" rx="14" transform="rotate(-90 1 264)" stroke="black" stroke-opacity="0.54" stroke-width="2"/>
</svg>
